<?xml version="1.0" encoding="UTF-8"?>
<svg version="1.1" xmlns="http://www.w3.org/2000/svg" width="30" height="30" viewBox="0 0 1920 1920">
<path d="M0 0 C633.6 0 1267.2 0 1920 0 C1920 633.6 1920 1267.2 1920 1920 C1286.4 1920 652.8 1920 0 1920 C0 1286.4 0 652.8 0 0 Z " fill="#3085b1" transform="translate(0,0)"/>
<path d="M0 0 C633.6 0 1267.2 0 1920 0 C1920 633.6 1920 1267.2 1920 1920 C1286.4 1920 652.8 1920 0 1920 C0 1286.4 0 652.8 0 0 Z M96 92 C95.87429306 112.14673386 95.74936016 132.2934724 95.62524227 152.44021611 C95.56753806 161.80408821 95.50961729 171.16795886 95.45111561 180.53182602 C95.21290082 218.68046089 94.98298051 256.8290598 94.81724548 294.97808838 C94.81413311 295.69304159 94.81102074 296.4079948 94.80781406 297.14461326 C94.68991923 324.30912603 94.59467589 351.47372509 94.50430756 378.63834152 C94.46378041 390.80529607 94.42015711 402.97223213 94.37231445 415.13916016 C94.02492441 503.81362189 93.94065091 592.48814677 94.43857496 1291.47010225 C94.48320415 1333.47737109 94.5271462 1375.48464059 94.57047789 1417.49191079 C94.57275898 1419.70316169 94.57504057 1421.91441259 94.57732232 1424.12566349 C94.60364731 1449.63752031 94.62992616 1475.14937717 94.65619169 1500.66123405 C94.7689011 1610.1074914 94.88467202 1719.55374531 95 1829 C273.86 1829 452.72 1829 637 1829 C637 1688.42 637 1547.84 637 1403 C676.06375 1402.896875 715.1275 1402.79375 755.375 1402.6875 C767.7092334 1402.62135498 780.0434668 1402.55520996 792.75146484 1402.48706055 C807.8137207 1402.49182129 807.8137207 1402.49182129 814.86514282 1402.51057434 C819.79033966 1402.51919535 824.71387992 1402.49133154 829.63882446 1402.44136047 C835.92457291 1402.37877883 842.20743369 1402.37865751 848.49330258 1402.42343867 C850.79785593 1402.42928174 853.10259405 1402.41332384 855.40680003 1402.37288797 C873.53142165 1402.07318989 873.53142165 1402.07318989 878.51588821 1406.83565712 C881.1903794 1409.97818855 883.07813074 1413.35903513 885 1417 C886.10604922 1418.56740919 887.23271224 1420.12098241 888.3984375 1421.64453125 C889.39231678 1423.03264443 890.3845083 1424.42196758 891.375 1425.8125 C895.50300917 1431.56704614 899.67462748 1437.28208912 903.9375 1442.9375 C910.09350754 1451.10479572 916.15970138 1459.33655723 922.21777344 1467.57666016 C925.14230746 1471.55322518 928.07135433 1475.52646271 931 1479.5 C932.16668888 1481.08331696 933.33335553 1482.66665031 934.5 1484.25 C935.36625 1485.425625 935.36625 1485.425625 936.25 1486.625 C1095.5 1702.74999999 1095.5 1702.74999999 1097.25048828 1705.12573242 C1098.41543849 1706.70668983 1099.58047734 1708.28758192 1100.74560547 1709.8684082 C1103.6892698 1713.86255828 1106.63131346 1717.8578843 1109.5703125 1721.85546875 C1115.01636895 1729.26019463 1120.47457766 1736.65424366 1126 1744 C1132.13028521 1752.1498895 1138.17710259 1760.3602261 1144.21777344 1768.57666016 C1147.14230746 1772.55322518 1150.07135433 1776.52646271 1153 1780.5 C1154.16668888 1782.08331696 1155.33335553 1783.66665031 1156.5 1785.25 C1157.0775 1786.03375 1157.655 1786.8175 1158.25 1787.625 C1163.49999999 1794.74999999 1163.49999999 1794.74999999 1165.25317383 1797.12939453 C1166.40914983 1798.6981614 1167.56523541 1800.26684753 1168.72143555 1801.83544922 C1171.80261563 1806.01596232 1174.88137376 1810.19823426 1177.95703125 1814.3828125 C1178.60220703 1815.26001953 1179.24738281 1816.13722656 1179.91210938 1817.04101562 C1181.15759415 1818.73451651 1182.40241032 1820.42850938 1183.64648438 1822.12304688 C1184.20271484 1822.87908203 1184.75894531 1823.63511719 1185.33203125 1824.4140625 C1185.82421143 1825.0838916 1186.3163916 1825.7537207 1186.82348633 1826.44384766 C1187.91223788 1827.95810606 1187.91223788 1827.95810606 1189 1829 C1190.40014495 1829.09695416 1191.8051634 1829.12447396 1193.20866114 1829.1241985 C1194.58166221 1829.12756944 1194.58166221 1829.12756944 1195.98240069 1829.13100848 C1197.00174172 1829.12838146 1198.02108275 1829.12575445 1199.0713129 1829.12304783 C1200.68628473 1829.1247786 1200.68628473 1829.1247786 1202.33388224 1829.12654433 C1205.99034914 1829.12921959 1209.64677319 1829.1246814 1213.30323792 1829.12025452 C1215.93159891 1829.12069003 1218.55995986 1829.12156458 1221.18832058 1829.12284368 C1226.92799853 1829.12492326 1232.66766615 1829.12326374 1238.40734291 1829.11920547 C1246.94212462 1829.11318761 1255.47689978 1829.11286807 1264.01168323 1829.11374746 C1278.36630176 1829.11506356 1292.72091571 1829.11171164 1307.07553291 1829.10573006 C1321.29529404 1829.09981981 1335.51505325 1829.09596548 1349.7348156 1829.09487724 C1350.61784976 1829.0948085 1351.50088392 1829.09473976 1352.41067669 1829.09466894 C1356.89487634 1829.09433062 1361.37907599 1829.09402923 1365.86327564 1829.09374207 C1397.65258545 1829.09163978 1429.44189277 1829.0848972 1461.23120117 1829.07543945 C1492.12052395 1829.06626005 1523.00984605 1829.05917398 1553.89916992 1829.05493164 C1554.85075201 1829.05480011 1555.8023341 1829.05466859 1556.78275201 1829.05453308 C1566.33863814 1829.05321459 1575.89452427 1829.05193877 1585.45041041 1829.05069422 C1604.9181071 1829.04815778 1624.38580374 1829.04533652 1643.85350037 1829.04234314 C1645.1962391 1829.0421372 1645.1962391 1829.0421372 1646.56610386 1829.04192711 C1706.37740362 1829.03272123 1766.18870198 1829.01687543 1826 1829 C1824.66537532 1826.27889879 1823.26690454 1823.8314274 1821.48828125 1821.375 C1820.98562744 1820.67898682 1820.48297363 1819.98297363 1819.96508789 1819.26586914 C1819.41973389 1818.51813232 1818.87437988 1817.77039551 1818.3125 1817 C1817.45289673 1815.81555298 1817.45289673 1815.81555298 1816.57592773 1814.60717773 C1811.66909112 1807.86863192 1806.67482951 1801.19694954 1801.66162109 1794.53735352 C1795.62770543 1786.52024655 1789.67486502 1778.44498554 1783.73388672 1770.35888672 C1780.82628372 1766.40320379 1777.91283606 1762.45183011 1775 1758.5 C1773.83330558 1756.91668712 1772.6666389 1755.33335379 1771.5 1753.75 C1770.9225 1752.96625 1770.345 1752.1825 1769.75 1751.375 C1694.5 1649.24999999 1694.5 1649.24999999 1692.74951172 1646.87426758 C1691.58456151 1645.29331017 1690.41952266 1643.71241808 1689.25439453 1642.1315918 C1686.3107302 1638.13744172 1683.36868654 1634.1421157 1680.4296875 1630.14453125 C1674.98363105 1622.73980537 1669.52542234 1615.34575634 1664 1608 C1657.86971479 1599.8501105 1651.82289741 1591.6397739 1645.78222656 1583.42333984 C1642.85769254 1579.44677482 1639.92864567 1575.47353729 1637 1571.5 C1635.83331112 1569.91668304 1634.66664447 1568.33334969 1633.5 1566.75 C1632.9225 1565.96625 1632.345 1565.1825 1631.75 1564.375 C1570.50000001 1481.25000001 1570.50000001 1481.25000001 1568.74951172 1478.87426758 C1567.58456151 1477.29331017 1566.41952266 1475.71241808 1565.25439453 1474.1315918 C1562.3107302 1470.13744172 1559.36868654 1466.1421157 1556.4296875 1462.14453125 C1550.98363105 1454.73980537 1545.52542234 1447.34575634 1540 1440 C1533.86971479 1431.8501105 1527.82289741 1423.6397739 1521.78222656 1415.42333984 C1518.85769254 1411.44677482 1515.92864567 1407.47353729 1513 1403.5 C1511.83331112 1401.91668304 1510.66664447 1400.33334969 1509.5 1398.75 C1508.9225 1397.96625 1508.345 1397.1825 1507.75 1396.375 C1496.66666667 1381.33333333 1485.58333333 1366.29166667 1474.5 1351.25 C1473.92145264 1350.46488037 1473.34290527 1349.67976074 1472.74682617 1348.87084961 C1471.59053869 1347.30149843 1470.43444855 1345.73200183 1469.27856445 1344.16235352 C1466.20477297 1339.98882486 1463.1267123 1335.81852576 1460.04296875 1331.65234375 C1459.39779297 1330.77964844 1458.75261719 1329.90695312 1458.08789062 1329.0078125 C1456.84434799 1327.32589872 1455.59960347 1325.64487273 1454.35351562 1323.96484375 C1453.79728516 1323.21203125 1453.24105469 1322.45921875 1452.66796875 1321.68359375 C1452.17578857 1321.01900146 1451.6836084 1320.35440918 1451.17651367 1319.66967773 C1450 1318 1450 1318 1449 1316 C1449.67651611 1315.70456299 1450.35303223 1315.40912598 1451.05004883 1315.10473633 C1483.090315 1301.30244759 1483.090315 1301.30244759 1513.8125 1284.87890625 C1516.59841665 1283.23671764 1519.40764525 1281.6779886 1522.25 1280.13671875 C1552.8338154 1263.52147288 1581.90353482 1243.83318469 1609 1222 C1609.92941406 1221.25363281 1610.85882812 1220.50726562 1611.81640625 1219.73828125 C1623.02563804 1210.65015591 1633.91687964 1201.21715827 1644.48925781 1191.39746094 C1646.04574963 1189.95768085 1647.61153561 1188.52862839 1649.1796875 1187.1015625 C1658.91047373 1178.22640681 1668.6059468 1169.19941134 1677.13671875 1159.14453125 C1679.14066193 1156.83810608 1681.21269072 1154.60759057 1683.29858398 1152.37548828 C1689.14052362 1146.1200801 1694.65985096 1139.69310626 1700 1133 C1700.92091185 1131.87030792 1701.84284111 1130.74144468 1702.765625 1129.61328125 C1715.62143959 1113.82861751 1727.14944928 1097.21694527 1738 1080 C1738.40669922 1079.35530762 1738.81339844 1078.71061523 1739.23242188 1078.04638672 C1746.74820069 1066.04002775 1753.40705187 1053.52939963 1760 1041 C1760.40718262 1040.23864746 1760.81436523 1039.47729492 1761.23388672 1038.69287109 C1770.5635819 1021.08384377 1776.50857509 1001.78131546 1783 983 C1783.40439301 981.83419403 1783.40439301 981.83419403 1783.81695557 980.64483643 C1795.49838235 946.95628306 1806.02044249 912.76807201 1814 878 C1814.25056152 876.91968506 1814.50112305 875.83937012 1814.75927734 874.72631836 C1816.82191873 865.51655246 1818.23734491 856.28232467 1819.5 846.9375 C1819.60638794 846.16052765 1819.71277588 845.3835553 1819.8223877 844.58303833 C1821.28431032 833.88396389 1822.61928226 823.17714404 1823.75 812.4375 C1823.86537109 811.3539624 1823.98074219 810.2704248 1824.09960938 809.15405273 C1825.94655635 790.69717584 1826.18819206 772.26327584 1826.18530273 753.7253418 C1826.18518223 749.73283265 1826.20565975 745.74051097 1826.22460938 741.74804688 C1826.27647662 718.2737824 1825.17702274 694.86778617 1822.25 671.5625 C1822.16796326 670.89741425 1822.08592651 670.23232849 1822.00140381 669.54708862 C1820.09241352 654.21078554 1817.22072092 639.11435381 1814 624 C1813.77086914 622.9073584 1813.54173828 621.8147168 1813.30566406 620.68896484 C1796.90713437 543.25410799 1769.29773947 463.28158452 1724 398 C1723.5054834 397.28166992 1723.0109668 396.56333984 1722.50146484 395.82324219 C1715.6800539 385.92945899 1708.55085967 376.34784721 1701 367 C1700.25234375 366.06929688 1699.5046875 365.13859375 1698.734375 364.1796875 C1696.51010889 361.43535918 1694.26257099 358.71283387 1692 356 C1691.5663916 355.48002441 1691.1327832 354.96004883 1690.68603516 354.42431641 C1679.44177791 340.99224457 1667.42054397 328.34614725 1655.0625 315.9375 C1654.28189209 315.15221924 1653.50128418 314.36693848 1652.69702148 313.55786133 C1648.51150432 309.38396191 1644.24173761 305.37336671 1639.76196289 301.5168457 C1637.53061307 299.59591229 1635.36048433 297.61151107 1633.1875 295.625 C1627.93801145 290.89486725 1622.51631394 286.41451049 1617 282 C1616.23526367 281.38584229 1616.23526367 281.38584229 1615.45507812 280.75927734 C1590.48405647 260.74731109 1564.04136447 242.37262735 1536.32910156 226.34912109 C1533.96897272 224.9820276 1531.62105269 223.59548345 1529.2734375 222.20703125 C1493.87321378 201.44116177 1456.51743256 184.05125093 1418.26074219 169.26367188 C1415.29454532 168.11414844 1412.33758531 166.94412436 1409.3828125 165.765625 C1395.82036845 160.40597487 1381.97846197 156.13294436 1368 152 C1366.4217041 151.52965332 1366.4217041 151.52965332 1364.81152344 151.04980469 C1353.83933546 147.7824397 1342.84854359 144.62257414 1331.76171875 141.76611328 C1328.18915694 140.84515616 1324.62877213 139.90677696 1321.08984375 138.86328125 C1306.79367663 134.66713062 1292.22456334 131.61236136 1277.67146301 128.45774841 C1273.17427776 127.48129191 1268.68599284 126.47430793 1264.203125 125.43359375 C1240.70084088 120.05662732 1216.82068689 116.63326941 1193 113 C1192.24295776 112.88420593 1191.48591553 112.76841187 1190.70593262 112.64910889 C1182.1486379 111.34271183 1173.58062241 110.14206301 1165 109 C1163.61796133 108.81214278 1162.23596468 108.62397626 1160.85400391 108.43554688 C1102.16317656 100.4683213 1043.14006371 96.84435658 984 94.375 C983.24876106 94.34339531 982.49752213 94.31179062 981.72351837 94.27922821 C980.98566856 94.24821266 980.24781876 94.21719711 979.48760986 94.1852417 C978.84733479 94.15828594 978.20705971 94.13133018 977.54738235 94.10355759 C968.47701444 93.72994218 959.40564377 93.39573895 950.33304922 93.08116691 C948.86443878 93.03007387 947.39584724 92.97843167 945.92728384 92.92600377 C909.47597569 91.62844339 872.99936569 91.86184435 836.53104227 91.88238885 C826.6805749 91.88772299 816.8301099 91.88704718 806.97964143 91.88625254 C788.81015079 91.88494782 770.64066382 91.88824477 752.47117424 91.89426994 C734.51092447 91.90021031 716.55067624 91.90404057 698.59042549 91.90512276 C697.46891658 91.9051915 696.34740766 91.90526024 695.19191363 91.90533106 C689.49510451 91.90566945 683.79829539 91.90597081 678.10148627 91.90625793 C637.87112327 91.90835195 597.64076227 91.91507135 557.41040039 91.92456055 C518.35506196 91.93376188 479.29972407 91.94083719 440.24438477 91.94506836 C439.03809799 91.94519989 437.83181122 91.94533141 436.58897031 91.94546692 C424.47367738 91.94678557 412.35838445 91.94806137 400.24309152 91.94930578 C375.56827538 91.95184122 350.89345928 91.95466247 326.21864319 91.95765686 C325.08442056 91.95779415 323.95019793 91.95793144 322.78160492 91.95807289 C247.18773579 91.96725575 171.59386775 91.98309881 96 92 Z " fill="#0C0302" transform="translate(0,0)"/>
<path d="M0 0 C1.56041016 0.25740967 1.56041016 0.25740967 3.15234375 0.52001953 C18.77795239 3.19521171 33.88428819 7.26712816 49 12 C49.79954102 12.24331055 50.59908203 12.48662109 51.42285156 12.73730469 C93.43997457 25.53925579 132.38496792 48.7627728 165 78 C165.75821045 78.67361572 165.75821045 78.67361572 166.53173828 79.36083984 C178.59383661 90.09881045 190.01502346 101.28869074 200 114 C200.88120223 115.0597202 201.76548215 116.11688648 202.65234375 117.171875 C216.38594898 133.65876789 228.24865128 151.89267889 238 171 C238.7108374 172.38493652 238.7108374 172.38493652 239.43603516 173.79785156 C257.53219756 209.38600272 268.57205953 247.36971539 272.69042969 287.04833984 C272.86546984 288.71729524 273.04700989 290.38568652 273.25004578 292.0514679 C273.86487187 297.19240757 274.18391752 302.25764567 274.23828125 307.43359375 C274.24798447 308.21659851 274.25768768 308.99960327 274.26768494 309.80633545 C274.29260213 312.35010999 274.30523082 314.89361542 274.3125 317.4375 C274.31511841 318.31427399 274.31773682 319.19104797 274.32043457 320.09439087 C274.32610197 337.9618817 272.71937641 355.3541616 270 373 C269.84515137 374.02061523 269.69030273 375.04123047 269.53076172 376.09277344 C260.37979692 434.32250074 232.2995807 490.34683391 193 534 C192.50258301 534.55381348 192.00516602 535.10762695 191.49267578 535.67822266 C182.20566314 545.97359067 172.67324295 556.12307081 162 565 C161.1946582 565.67603271 161.1946582 565.67603271 160.37304688 566.36572266 C144.23760956 579.87375855 127.29788384 591.60148913 109 602 C108.18611816 602.4626123 107.37223633 602.92522461 106.53369141 603.40185547 C86.52074303 614.62999241 65.33026089 623.39614027 43.375 630 C42.21621338 630.34949707 41.05742676 630.69899414 39.86352539 631.05908203 C24.07938955 635.62984215 7.96994569 638.63462813 -8.3125 640.75 C-9.13683533 640.85739502 -9.96117065 640.96479004 -10.81048584 641.07543945 C-82.41374503 650.16390654 -158.03621746 633.81535594 -219 595 C-219.62729004 594.60248535 -220.25458008 594.2049707 -220.90087891 593.79541016 C-247.69652271 576.68228375 -273.6123651 555.51322703 -294 531 C-294.67603271 530.1946582 -294.67603271 530.1946582 -295.36572266 529.37304688 C-321.08038272 498.65671707 -340.23063776 464.60051665 -354 427 C-354.34933594 426.05914551 -354.69867187 425.11829102 -355.05859375 424.14892578 C-362.5306764 403.82951228 -367.02103207 382.41972435 -370 361 C-370.10296387 360.32275879 -370.20592773 359.64551758 -370.31201172 358.94775391 C-374.08031714 333.53401639 -373.73480599 305.39262114 -370 280 C-369.87109375 279.08541016 -369.7421875 278.17082031 -369.609375 277.22851562 C-360.88952058 216.63360136 -336.49307743 161.42777079 -298 114 C-297.34040283 113.18160645 -297.34040283 113.18160645 -296.66748047 112.34667969 C-285.07855946 98.06831066 -272.01409475 84.16614525 -257.44921875 72.90234375 C-255.76364487 71.59313405 -254.12152056 70.2266614 -252.51953125 68.81640625 C-222.98382899 42.86078911 -185.13523949 24.08332201 -148 12 C-147.19353027 11.73751465 -146.38706055 11.4750293 -145.55615234 11.20458984 C-135.53899879 7.99953295 -125.37637141 5.58364639 -115.08447266 3.44091797 C-113.21203186 3.04485003 -111.34574617 2.6199439 -109.48046875 2.19140625 C-74.37533941 -5.55178228 -35.42710939 -5.87205484 0 0 Z " fill="#0C0302" transform="translate(1009,427)"/>
<path d="M0 0 C51.87201502 39.79969921 78.37461176 110.93115549 92.0625 172.6875 C92.2097049 173.3440155 92.35690979 174.00053101 92.50857544 174.67694092 C95.77381978 189.34626569 97.60267735 203.61163495 97.51074219 218.61474609 C97.50000015 220.68747165 97.51073653 222.75933112 97.5234375 224.83203125 C97.539427 238.65123854 95.71232328 252.02586209 92.9375 265.5625 C92.71803711 266.63773926 92.49857422 267.71297852 92.27246094 268.82080078 C90.34079442 278.08257522 88.07140717 287.15795977 85.25 296.1875 C84.93546875 297.19538574 84.6209375 298.20327148 84.296875 299.24169922 C79.44282179 314.62116911 73.97971913 329.53245402 67.25 344.1875 C66.82992676 345.1151416 66.40985352 346.0427832 65.97705078 346.99853516 C55.21154983 370.67305728 42.13098935 392.36535824 25.25 412.1875 C24.57066406 412.99058594 23.89132812 413.79367187 23.19140625 414.62109375 C18.87809926 419.60704121 14.39962889 424.07110323 9.25 428.1875 C8.7358252 428.60290039 8.22165039 429.01830078 7.69189453 429.44628906 C-8.33192499 442.25260208 -26.73932942 451.11977097 -47.75 449.1875 C-78.72529294 444.23269962 -103.04071095 421.9757591 -121.23925781 397.60986328 C-127.17205126 389.41268853 -132.52003501 380.84406203 -137.75 372.1875 C-138.43320312 371.07761719 -139.11640625 369.96773437 -139.8203125 368.82421875 C-158.70556998 337.09856654 -172.99982264 300.66060288 -180.296875 264.42871094 C-180.61789928 262.84088611 -180.95262158 261.25580256 -181.296875 259.67285156 C-187.01018617 233.02681756 -186.30330334 205.80193278 -180.75 179.1875 C-180.45246826 177.74697266 -180.45246826 177.74697266 -180.14892578 176.27734375 C-174.42931179 149.52210887 -165.00010517 123.08472607 -153.75 98.1875 C-153.06019043 96.65754395 -153.06019043 96.65754395 -152.35644531 95.09667969 C-142.52197098 73.50345 -130.97627838 53.19296017 -116.75 34.1875 C-116.06292969 33.25550781 -115.37585938 32.32351563 -114.66796875 31.36328125 C-109.68819657 24.94949183 -104.00684437 19.21392402 -98.3125 13.4375 C-97.52544678 12.6326416 -96.73839355 11.8277832 -95.92749023 10.99853516 C-68.22245316 -16.66926011 -32.56623233 -22.77293368 0 0 Z " fill="#3085b1" transform="translate(1003.75,529.8125)"/>
</svg>
